<svg id="Layer_1" data-name="Layer 1" xmlns="http://www.w3.org/2000/svg" viewBox="0 0 1871.14 404.3"><defs><style>.cls-1{fill:#2962ff;}</style></defs><title>Veedmo</title><path d="M753.93,134a14.19,14.19,0,0,1,5,11,19.67,19.67,0,0,1-1.72,7.55l-87.5,206.93a17.87,17.87,0,0,1-6.86,7.89,17.47,17.47,0,0,1-9.27,2.74,17.66,17.66,0,0,1-8.41-2.91,18.3,18.3,0,0,1-6.34-7.38L551.3,152.54a16.07,16.07,0,0,1-1.37-7.2,14.71,14.71,0,0,1,5.15-11.67,16.91,16.91,0,0,1,11.32-4.46q10.29,0,15.1,11l74.81,176.72L727,139.85a19.61,19.61,0,0,1,6.34-7.55,15,15,0,0,1,8.75-2.75A17.16,17.16,0,0,1,753.93,134Z" transform="translate(-64.43 -47.85)"/><path d="M945.75,343.34a15.77,15.77,0,0,1,4.64,11.32,14.47,14.47,0,0,1-4.64,11.15,16.67,16.67,0,0,1-11.83,4.29H814.5A16.39,16.39,0,0,1,798,353.63V146.37A16.39,16.39,0,0,1,814.5,129.9H933.92a16.35,16.35,0,0,1,11.83,4.46A15.45,15.45,0,0,1,950.39,146a14.51,14.51,0,0,1-4.64,11.16,16.71,16.71,0,0,1-11.83,4.29H832v70h86.47a16.38,16.38,0,0,1,11.84,4.46A15.05,15.05,0,0,1,935,247.25q0,7.22-4.64,11.33a17.18,17.18,0,0,1-11.84,4.12H832v75.83H933.92A15.72,15.72,0,0,1,945.75,343.34Z" transform="translate(-64.43 -47.85)"/><path d="M1141.35,343.34a15.76,15.76,0,0,1,4.63,11.32,14.47,14.47,0,0,1-4.63,11.15,16.69,16.69,0,0,1-11.84,4.29H1010.09a16.41,16.41,0,0,1-16.47-16.47V146.37a16.41,16.41,0,0,1,16.47-16.47h119.42a16.38,16.38,0,0,1,11.84,4.46A15.44,15.44,0,0,1,1146,146a14.5,14.5,0,0,1-4.63,11.16,16.73,16.73,0,0,1-11.84,4.29H1027.59v70h86.48a16.4,16.4,0,0,1,11.84,4.46,15.08,15.08,0,0,1,4.63,11.32q0,7.22-4.63,11.33a17.19,17.19,0,0,1-11.84,4.12h-86.48v75.83h101.92A15.74,15.74,0,0,1,1141.35,343.34Z" transform="translate(-64.43 -47.85)"/><path d="M1345.35,146q23,16.14,34.66,43.41T1391.68,250q0,33.63-11.67,60.91t-34.66,43.24q-23,15.94-55.25,16h-84.41a16.39,16.39,0,0,1-16.47-16.47V146.37a16.39,16.39,0,0,1,16.47-16.47h84.41Q1322.35,129.9,1345.35,146Zm-6.18,167.63q17.5-24.87,17.51-63.65,0-38.43-17.68-63.48t-52.33-25.05h-63.48V338.53h63.48Q1321.68,338.53,1339.17,313.65Z" transform="translate(-64.43 -47.85)"/><path d="M1655.56,134.53a15.33,15.33,0,0,1,4.8,11.49V353.63a16.17,16.17,0,0,1-4.63,11.67c-3.09,3.21-7.15,4.8-12.18,4.8a17.07,17.07,0,0,1-12.36-4.63,15.73,15.73,0,0,1-4.8-11.84V194.75l-66.57,100.89a20.2,20.2,0,0,1-6,5.15,12.34,12.34,0,0,1-7.37,1.71,11.7,11.7,0,0,1-7-1.71,20.16,20.16,0,0,1-6-5.15l-66.92-104v162a16.73,16.73,0,0,1-4.29,11.84q-4.29,4.63-11.49,4.63a14.47,14.47,0,0,1-11.15-4.63,16.7,16.7,0,0,1-4.3-11.84V146a16.72,16.72,0,0,1,16.82-16.47,17.28,17.28,0,0,1,8.06,2.06,17.5,17.5,0,0,1,6.35,5.49l81.33,123.19,82.36-123.19q5.47-7.54,13.72-7.55A17.53,17.53,0,0,1,1655.56,134.53Z" transform="translate(-64.43 -47.85)"/><path d="M1920.64,312.8a113.72,113.72,0,0,1-41.35,44.43q-26.43,16.31-59.71,16.3t-59.7-16.3a113.72,113.72,0,0,1-41.35-44.43q-14.94-28.14-14.93-62.8t14.93-62.8a113.89,113.89,0,0,1,41.35-44.44q26.41-16.29,59.7-16.3t59.71,16.3a113.89,113.89,0,0,1,41.35,44.44q14.92,28.14,14.93,62.8T1920.64,312.8Zm-30.71-109.3a80.34,80.34,0,0,0-28.65-32.6q-18.36-11.84-41.7-11.84t-41.69,11.67q-18.36,11.67-28.65,32.43T1738.94,250q0,25.74,10.3,46.5a80.33,80.33,0,0,0,28.65,32.6q18.36,11.83,41.69,11.84t41.7-11.84a80.4,80.4,0,0,0,28.65-32.6q10.29-20.76,10.29-46.5T1889.93,203.5Z" transform="translate(-64.43 -47.85)"/><path class="cls-1" d="M185.84,61l-.22-.1c-3.45-1.73-6.85-3.23-10.22-4.61-1-.41-2-.85-3-1.22-1.22-.47-2.42-.87-3.63-1.29s-2.2-.77-3.29-1.11-2.26-.67-3.38-1-2.31-.64-3.46-.92-2.08-.5-3.12-.72c-1.23-.26-2.46-.5-3.68-.71-.93-.16-1.86-.33-2.78-.47-1.39-.2-2.76-.35-4.12-.48-.74-.08-1.48-.18-2.21-.23-2.09-.16-4.16-.25-6.2-.25-18.65,0-34.78,6.5-47,18.71-.87.88-1.73,1.78-2.56,2.71a69.74,69.74,0,0,0-4.76,5.93A84.53,84.53,0,0,0,71.06,97c-1,2.75-1.81,5.61-2.57,8.56a140.49,140.49,0,0,0-4.06,34.79V359.66q0,8.23.76,15.81c4.88,48.78,32.7,76.68,71.33,76.68,2,0,4.1-.09,6.19-.25.74,0,1.48-.15,2.22-.23,1.37-.13,2.73-.28,4.12-.48.92-.14,1.85-.31,2.78-.47,1.22-.21,2.45-.44,3.68-.71q1.56-.33,3.12-.72c1.15-.28,2.3-.59,3.46-.92s2.25-.64,3.38-1,2.19-.73,3.28-1.11,2.42-.82,3.64-1.28c1-.38,2-.82,3-1.22,3.45-1.41,6.92-2.95,10.45-4.72-19.62-14.94-31.53-42.2-31.53-79.39V140.34C154.31,103.14,166.22,75.89,185.84,61Z" transform="translate(-64.43 -47.85)"/><path class="cls-1" d="M384.11,175.1l-178.34-103-7.23,5.51c-15,11.42-23.25,33.69-23.25,62.7v18L334.08,250,175.29,341.68v18c0,29,8.26,51.28,23.26,62.7l7.22,5.51,178.34-103C455.46,283.71,455.46,216.29,384.11,175.1Z" transform="translate(-64.43 -47.85)"/></svg>